<svg width="20" height="20" viewBox="0 0 20 20" fill="none" xmlns="http://www.w3.org/2000/svg">
<g clip-path="url(#clip0_256_604)">
<path d="M9.71169 16.8209C9.82027 16.7466 9.94894 16.7082 10.08 16.711C10.1888 16.7135 10.2951 16.7444 10.3887 16.8005C10.4822 16.8567 10.56 16.9363 10.6143 17.0316C10.6842 16.9597 10.768 16.903 10.8604 16.8652C10.9529 16.8274 11.052 16.8092 11.1517 16.8117C11.3275 16.8155 11.496 16.8839 11.6257 17.0041C11.6723 16.8284 11.7759 16.6736 11.9198 16.5645C12.0638 16.4554 12.2398 16.3983 12.4196 16.4025C12.5203 16.405 12.6197 16.4268 12.7124 16.4666V16.485C12.7245 16.0055 13.1049 15.6238 13.5698 15.6085C13.4804 15.4217 13.4458 15.2129 13.4702 15.0069C13.5155 14.6312 13.7449 14.3228 14.0558 14.1609L14.0589 14.164C13.8989 13.996 13.8023 13.767 13.8083 13.5135C13.8124 13.3197 13.878 13.1323 13.9955 12.9791C13.8236 12.881 13.6922 12.7239 13.6252 12.5361C13.5581 12.3484 13.5599 12.1426 13.6302 11.956C13.4447 11.9369 13.2733 11.8475 13.1502 11.706C13.027 11.5644 12.9613 11.3811 12.966 11.1926C12.9661 11.1537 12.9691 11.1149 12.9751 11.0765C12.9334 11.0851 12.8909 11.0892 12.8483 11.0887C12.7164 11.0848 12.5895 11.0368 12.4874 10.9523C12.3853 10.8678 12.3137 10.7515 12.2838 10.6215C12.192 10.6838 12.0833 10.7158 11.9728 10.7131C11.7253 10.7039 11.52 10.5299 11.4657 10.2947C11.4122 10.3247 11.3517 10.3395 11.2906 10.3375C11.2402 10.3363 11.1907 10.3238 11.1457 10.3008V10.2947C11.0918 10.4806 10.9909 10.6491 10.8528 10.7833C10.9204 10.8153 10.9756 10.869 11.0098 10.936C11.035 10.9864 11.0477 11.0422 11.0466 11.0986C11.0456 11.1551 11.0309 11.2104 11.0038 11.2597C11.097 11.2811 11.1829 11.3272 11.2526 11.3933C11.3223 11.4595 11.3734 11.5432 11.4004 11.636C11.4275 11.7287 11.4296 11.827 11.4066 11.9209C11.3836 12.0147 11.3362 12.1006 11.2694 12.1698C11.3943 12.2251 11.4966 12.3221 11.5592 12.4447C11.7102 12.7409 11.5924 13.1043 11.2996 13.257C11.3652 13.3179 11.4194 13.3903 11.4596 13.4708C11.6468 13.8403 11.5049 14.2953 11.1396 14.4786C11.0824 14.5088 11.0215 14.5314 10.9585 14.5457V14.5488C11.0081 14.6462 11.0383 14.7526 11.0473 14.8619C11.0563 14.9711 11.0439 15.0811 11.0108 15.1854C10.9777 15.2898 10.9246 15.3866 10.8545 15.4702C10.7844 15.5538 10.6987 15.6226 10.6023 15.6726C10.4655 15.7438 10.3117 15.7744 10.1585 15.7612C10.1696 15.9464 10.1244 16.1306 10.0289 16.2889C9.93331 16.4473 9.79206 16.5722 9.62415 16.6468C9.66457 16.6976 9.69528 16.7556 9.71471 16.8178C9.71371 16.8179 9.7127 16.8179 9.71169 16.8178V16.8209Z" fill="#120030"/>
<path d="M18.8317 0.305389H1.1683C0.938507 0.305389 0.718131 0.397731 0.555647 0.562101C0.393163 0.726471 0.30188 0.949405 0.30188 1.18186V18.8181C0.30188 18.9332 0.32429 19.0472 0.367832 19.1535C0.411373 19.2599 0.475193 19.3565 0.555647 19.4379C0.636101 19.5193 0.731614 19.5838 0.836732 19.6279C0.941851 19.6719 1.05452 19.6946 1.1683 19.6946H18.8317C18.9455 19.6946 19.0581 19.6719 19.1633 19.6279C19.2684 19.5838 19.3639 19.5193 19.4443 19.4379C19.5248 19.3565 19.5886 19.2599 19.6322 19.1535C19.6757 19.0472 19.6981 18.9332 19.6981 18.8181V1.18186C19.6981 1.06676 19.6757 0.952787 19.6322 0.846449C19.5886 0.74011 19.5248 0.643489 19.4443 0.562101C19.3639 0.480714 19.2684 0.416153 19.1633 0.372107C19.0581 0.32806 18.9455 0.305389 18.8317 0.305389V0.305389ZM18.0317 12.179C17.917 12.3622 17.7358 12.4843 17.5426 12.5332C17.6383 12.6468 17.6977 12.7869 17.7132 12.9353C17.7286 13.0837 17.6992 13.2333 17.629 13.3645C17.5588 13.4957 17.4509 13.6023 17.3197 13.6704C17.1884 13.7384 17.0399 13.7646 16.8936 13.7456C16.8918 13.7344 16.8898 13.7232 16.8875 13.712C16.9098 13.8263 16.9009 13.9446 16.8618 14.0542C16.8226 14.1637 16.7547 14.2605 16.6653 14.3339C16.576 14.4074 16.4685 14.4548 16.3544 14.4712C16.2404 14.4875 16.1241 14.4721 16.0181 14.4266C16.0101 14.5081 15.9832 14.5866 15.9396 14.6557C15.8581 14.787 15.7283 14.8694 15.5924 14.8908C15.6197 15.013 15.6258 15.1391 15.6106 15.2634C15.5773 15.5505 15.4326 15.8125 15.2085 15.9917C14.9843 16.171 14.6989 16.2528 14.4151 16.2193H14.4453C14.4784 16.3196 14.4937 16.425 14.4906 16.5308C14.4842 16.7692 14.3847 16.9953 14.2138 17.1596C14.0429 17.3239 13.8146 17.413 13.5789 17.4072C13.4464 17.4038 13.3165 17.3704 13.1985 17.3095C13.1811 17.4619 13.1215 17.6061 13.0265 17.7256C12.9315 17.8452 12.8051 17.935 12.6617 17.9849C12.5183 18.0347 12.3639 18.0425 12.2164 18.0073C12.0688 17.972 11.9342 17.8953 11.8279 17.7859C11.7809 17.9273 11.6927 18.051 11.5749 18.1407C11.4571 18.2304 11.3152 18.282 11.1679 18.2886C11.0205 18.2952 10.8747 18.2565 10.7495 18.1777C10.6243 18.0989 10.5256 17.9836 10.4664 17.847C10.3796 17.919 10.2755 17.9665 10.1646 17.9844C10.0537 18.0024 9.94013 17.9903 9.83543 17.9493C9.73072 17.9083 9.63866 17.8399 9.56865 17.7511C9.49864 17.6623 9.4532 17.5563 9.43697 17.4439C9.36363 17.4797 9.28294 17.4975 9.2015 17.4958C8.93886 17.4897 8.72452 17.282 8.70037 17.0224L8.70339 17.0163C8.58223 17.2098 8.40363 17.3595 8.1932 17.4439C7.93298 17.5492 7.64243 17.5479 7.38317 17.4401C7.12391 17.3324 6.91635 17.1267 6.80452 16.8667C6.73364 16.944 6.64984 17.0081 6.55697 17.056C6.3471 17.164 6.10351 17.1834 5.87949 17.1102C5.65546 17.0369 5.46922 16.8769 5.3615 16.6651C5.30018 16.5461 5.26613 16.4145 5.26188 16.2803C5.12152 16.3368 4.96826 16.3521 4.8197 16.3245C4.67113 16.2968 4.53329 16.2274 4.422 16.124C4.31071 16.0207 4.23049 15.8877 4.19055 15.7403C4.15061 15.593 4.15258 15.4372 4.19622 15.2909C4.05107 15.317 3.90152 15.298 3.76722 15.2365C3.63291 15.175 3.52014 15.0739 3.44372 14.9463C3.36729 14.8188 3.3308 14.6709 3.33902 14.522C3.34725 14.3731 3.39981 14.2302 3.4898 14.1121C3.38551 14.0695 3.2943 13.9996 3.22553 13.9095C3.15676 13.8195 3.11291 13.7126 3.09847 13.5998C3.08402 13.4869 3.09952 13.3722 3.14335 13.2675C3.18719 13.1627 3.25779 13.0716 3.34792 13.0035C3.2821 12.9557 3.22833 12.893 3.19094 12.8203C3.15163 12.743 3.13188 12.6571 3.13346 12.5702C3.13504 12.4834 3.1579 12.3982 3.19999 12.3225L3.21509 12.3255C3.06919 12.2896 2.9324 12.223 2.81358 12.1301C2.59059 11.9563 2.44364 11.7012 2.40415 11.4193C2.36466 11.1374 2.43576 10.851 2.60226 10.6215C2.50154 10.5988 2.40551 10.5585 2.31848 10.5024C2.11968 10.3738 1.97942 10.1708 1.92848 9.93775C1.87754 9.70472 1.92009 9.46076 2.04679 9.25943C2.1186 9.14668 2.21455 9.0517 2.32754 8.98152C2.20693 8.88815 2.11497 8.7621 2.06232 8.61799C2.00968 8.47388 1.99851 8.31762 2.03012 8.16735C2.06172 8.01708 2.1348 7.87896 2.24088 7.76901C2.34696 7.65906 2.48169 7.5818 2.62943 7.54619C2.53454 7.43235 2.47587 7.29216 2.46109 7.14401C2.44631 6.99585 2.47612 6.84664 2.5466 6.71591C2.61709 6.58519 2.72497 6.47905 2.8561 6.41141C2.98724 6.34377 3.13552 6.31778 3.2815 6.33684L3.28452 6.37044C3.26155 6.25591 3.26996 6.13722 3.30882 6.02717C3.34768 5.91713 3.41553 5.81991 3.50503 5.74604C3.59453 5.67216 3.70228 5.62442 3.81665 5.60798C3.93102 5.59155 4.04765 5.60703 4.15396 5.65277C4.162 5.57125 4.18888 5.49279 4.23245 5.42373C4.31396 5.29546 4.44377 5.21301 4.58263 5.18858C4.55476 5.06753 4.54762 4.94255 4.5615 4.81906C4.59419 4.53667 4.73463 4.27838 4.95288 4.09925C5.17113 3.92011 5.44992 3.83431 5.7298 3.86013C5.69602 3.76096 5.67967 3.65657 5.6815 3.55169C5.6966 3.0539 6.10414 2.65995 6.5932 2.67522C6.72539 2.67762 6.85537 2.70997 6.97358 2.76989C6.9914 2.61779 7.05137 2.4739 7.14655 2.35479C7.24174 2.23569 7.36828 2.14624 7.51156 2.09675C7.65484 2.04727 7.80903 2.03976 7.95635 2.07511C8.10366 2.11046 8.2381 2.18722 8.34414 2.29653C8.39083 2.155 8.47877 2.03108 8.5964 1.94107C8.71403 1.85106 8.85583 1.79917 9.00316 1.79223C9.15049 1.78529 9.29645 1.82362 9.42184 1.90219C9.54722 1.98075 9.64617 2.09587 9.70565 2.2324C9.79245 2.16036 9.89661 2.11292 10.0075 2.09495C10.1183 2.07698 10.2319 2.08912 10.3366 2.13012C10.4413 2.17112 10.5334 2.23952 10.6034 2.32832C10.6734 2.41711 10.7189 2.52313 10.7351 2.63552C10.8087 2.60071 10.8894 2.58397 10.9706 2.58665C11.2362 2.59276 11.4475 2.80043 11.4747 3.05695L11.4687 3.06612C11.5892 2.87139 11.7679 2.72056 11.9789 2.63552C12.5223 2.41258 13.1381 2.67216 13.3675 3.21576C13.4382 3.13733 13.522 3.07219 13.6151 3.02336C13.8253 2.91446 14.0696 2.89447 14.2943 2.96777C14.5191 3.04108 14.7059 3.20168 14.8136 3.41426C14.8739 3.53359 14.9069 3.66509 14.9102 3.79905C15.051 3.74138 15.2051 3.72529 15.3545 3.75265C15.504 3.78001 15.6427 3.84969 15.7546 3.95361C15.8665 4.05753 15.947 4.19143 15.9867 4.33975C16.0264 4.48807 16.0237 4.64474 15.9789 4.79157C16.1235 4.76614 16.2724 4.78538 16.406 4.8468C16.5397 4.90821 16.652 5.00894 16.7283 5.13585C16.8045 5.26277 16.8412 5.40998 16.8335 5.55829C16.8259 5.70661 16.7742 5.84915 16.6853 5.96732C16.7896 6.00992 16.8808 6.07983 16.9495 6.16986C17.0183 6.25989 17.0622 6.3668 17.0766 6.47964C17.0911 6.59248 17.0756 6.70717 17.0317 6.81195C16.9879 6.91673 16.9173 7.00782 16.8272 7.07589C16.8919 7.12402 16.9446 7.18676 16.9811 7.25912C17.021 7.33676 17.041 7.42324 17.0394 7.5107C17.0378 7.59817 17.0147 7.68385 16.9721 7.75996C17.1135 7.7966 17.246 7.86207 17.3615 7.95236C17.5832 8.12648 17.7289 8.3812 17.7678 8.66236C17.8067 8.94352 17.7357 9.22894 17.5698 9.45793C17.6707 9.48159 17.7668 9.52293 17.8536 9.58009C18.0515 9.70858 18.1912 9.91107 18.2421 10.1434C18.293 10.3757 18.251 10.6189 18.1253 10.82C18.0547 10.9335 17.9598 11.0295 17.8475 11.1009C18.0054 11.2251 18.1118 11.4045 18.1459 11.6039C18.18 11.8033 18.1392 12.0083 18.0317 12.179V12.179Z" fill="#120030"/>
<path d="M9.55772 3.04779C9.48783 3.11974 9.40406 3.17638 9.31162 3.21421C9.21918 3.25203 9.12004 3.27023 9.02036 3.26767C8.84597 3.26397 8.67875 3.19674 8.54942 3.07833C8.50212 3.25403 8.39783 3.40855 8.2533 3.5171C8.10877 3.62565 7.93238 3.68193 7.75244 3.6769C7.6519 3.67533 7.55256 3.65461 7.45961 3.61582C7.4491 3.84127 7.35505 4.05445 7.19617 4.21291C7.03729 4.37137 6.82524 4.46348 6.60225 4.47091C6.69169 4.65767 6.72627 4.86648 6.70187 5.07253C6.68098 5.25152 6.61654 5.42247 6.51434 5.5701C6.41213 5.71772 6.27534 5.83741 6.11621 5.91846C6.27621 6.08642 6.3698 6.31547 6.36376 6.56894C6.359 6.76173 6.29341 6.94792 6.17659 7.10032C6.43621 7.24691 6.60527 7.52787 6.59923 7.84853C6.59567 7.94277 6.57628 8.03572 6.54187 8.12338C6.72784 8.14259 6.89972 8.23233 7.02294 8.37454C7.14615 8.51675 7.21157 8.70088 7.20602 8.88991C7.20581 8.92775 7.20278 8.96552 7.19697 9.0029C7.23879 8.9953 7.28129 8.99222 7.32376 8.99374C7.60149 8.99985 7.83093 9.19835 7.8913 9.46098C7.98224 9.39925 8.08973 9.36726 8.19923 9.36937C8.4498 9.37548 8.65206 9.5526 8.70942 9.78775C8.75612 9.76118 8.80839 9.74622 8.86193 9.74409C8.91546 9.74197 8.96873 9.75275 9.01734 9.77554C9.05266 9.58477 9.13699 9.40677 9.26187 9.25943C9.22149 9.22855 9.18848 9.18889 9.16527 9.14338C9.14008 9.09367 9.1272 9.03853 9.12772 8.98267C9.12825 8.92682 9.14217 8.87193 9.16829 8.82272C9.07472 8.80128 8.98854 8.75489 8.91869 8.68836C8.84883 8.62184 8.79786 8.53762 8.77106 8.44443C8.74425 8.35125 8.7426 8.2525 8.76627 8.15845C8.78993 8.0644 8.83806 7.97848 8.90564 7.9096C8.78075 7.8543 8.67844 7.75726 8.61583 7.63475C8.57799 7.55982 8.55603 7.47773 8.55135 7.39373C8.54666 7.30972 8.55936 7.22566 8.58862 7.1469C8.61789 7.06814 8.66308 6.99643 8.72131 6.93635C8.77954 6.87627 8.84952 6.82914 8.92678 6.79798C8.91038 6.80439 8.89426 6.81153 8.87848 6.81936C8.81177 6.75869 8.75653 6.68626 8.71546 6.60559C8.66328 6.50327 8.63516 6.39014 8.63327 6.27503C8.63138 6.15991 8.65577 6.04591 8.70455 5.94189C8.75334 5.83787 8.82519 5.74664 8.91453 5.67531C9.00386 5.60398 9.10826 5.55446 9.21961 5.53061V5.52756C9.12004 5.33146 9.1013 5.10345 9.16749 4.89341C9.23368 4.68337 9.37942 4.5084 9.57281 4.40678C9.71016 4.33403 9.8651 4.30226 10.0196 4.31516C10.009 4.1397 10.0489 3.9649 10.1347 3.812C10.2205 3.65911 10.3483 3.53472 10.5026 3.45396C10.5185 3.44636 10.5346 3.43923 10.5509 3.43258C10.5116 3.38152 10.4819 3.32354 10.4634 3.26157C10.3545 3.33477 10.2258 3.3721 10.0951 3.36845C9.986 3.36557 9.87951 3.33426 9.7859 3.27755C9.69229 3.22084 9.61474 3.14065 9.56074 3.04474L9.55772 3.04779ZM16.0392 9.67476C15.8981 9.56398 15.7865 9.41947 15.7143 9.25422C15.6421 9.08897 15.6116 8.90816 15.6256 8.72805C15.4022 8.77996 15.1577 8.74637 14.9494 8.60895C14.7875 8.50572 14.6626 8.35264 14.5932 8.17224C14.4632 8.24683 14.3155 8.28425 14.1661 8.28048C14.0167 8.27672 13.8711 8.23191 13.7449 8.15086C13.665 8.09936 13.5945 8.03427 13.5366 7.95847C13.3072 8.26996 12.8755 8.35547 12.5464 8.1417C12.5146 8.12163 12.4843 8.09917 12.4558 8.07451C12.4418 8.11504 12.4236 8.15394 12.4015 8.19056C12.3299 8.30297 12.2236 8.38822 12.099 8.43298C11.9745 8.47773 11.8388 8.47947 11.7132 8.43793C11.7177 8.54908 11.6882 8.65893 11.6287 8.75248C11.4958 8.96625 11.2392 9.05176 11.0128 8.97847C11.0115 9.04011 10.9938 9.10026 10.9615 9.15254C10.9434 9.18003 10.9222 9.20446 10.9011 9.22278C11.0211 9.3536 11.1081 9.5118 11.1547 9.68392C11.2018 9.66108 11.2534 9.64959 11.3056 9.65033C11.3612 9.65189 11.4156 9.66718 11.464 9.69486C11.5124 9.72254 11.5534 9.76177 11.5834 9.80913C11.6464 9.73636 11.7275 9.68193 11.8183 9.65146C11.9091 9.621 12.0063 9.61561 12.0999 9.63584C12.1934 9.65607 12.2799 9.7012 12.3504 9.76656C12.421 9.83192 12.473 9.91514 12.5011 10.0076C12.609 9.92339 12.7422 9.87919 12.8785 9.88242C13.2106 9.88853 13.4672 10.1664 13.4611 10.4993C13.4601 10.5198 13.4581 10.5401 13.4551 10.5604L13.4611 10.5024C13.5454 10.4722 13.6344 10.4577 13.7238 10.4596C13.8214 10.4616 13.9177 10.4831 14.0071 10.5229C14.0965 10.5628 14.1772 10.6201 14.2446 10.6917C14.3119 10.7632 14.3646 10.8476 14.3996 10.9398C14.4345 11.0321 14.4511 11.1304 14.4483 11.2292C14.4465 11.2944 14.4364 11.3591 14.4181 11.4216C14.8739 11.4338 15.2332 11.8155 15.2211 12.2767C15.2173 12.4323 15.1702 12.5836 15.0853 12.7134C15.2445 12.7873 15.3788 12.9069 15.4717 13.0572C15.5645 13.2076 15.6117 13.3821 15.6075 13.5593C15.6039 13.6608 15.5835 13.7609 15.5472 13.8555L15.5502 13.8494L15.6317 13.8647C15.6257 13.7321 15.6605 13.6008 15.7313 13.4891C15.79 13.3961 15.8714 13.3199 15.9676 13.268C16.0638 13.2161 16.1717 13.1902 16.2807 13.1929C16.2556 13.095 16.2507 12.993 16.2663 12.8932C16.2819 12.7934 16.3176 12.6979 16.3713 12.6126C16.4663 12.4645 16.6111 12.356 16.7789 12.3072C16.6533 12.1759 16.5752 12.0056 16.5572 11.8239C16.5391 11.6421 16.5821 11.4595 16.6792 11.3055C16.7343 11.2196 16.805 11.145 16.8875 11.0857C16.7007 10.9605 16.5676 10.7684 16.515 10.5481C16.4624 10.3277 16.4941 10.0954 16.6038 9.89769C16.3993 9.8793 16.2045 9.80192 16.0422 9.67476H16.0392Z" fill="#120030"/>
<path d="M16.0815 7.21942C16.1005 7.18761 16.1228 7.15792 16.1479 7.13086C16.0326 7.06938 15.9387 6.9734 15.8793 6.85601C15.8295 6.7579 15.8055 6.64845 15.8098 6.53825C15.814 6.42805 15.8463 6.32082 15.9034 6.22691C15.7162 6.17194 15.5532 6.04367 15.4566 5.85433C15.3763 5.69726 15.3549 5.51613 15.3962 5.34433C15.2212 5.38707 15.037 5.36905 14.8733 5.29317C14.7096 5.21729 14.5759 5.08796 14.4936 4.92594C14.4474 4.8345 14.4187 4.73502 14.4091 4.63277C14.2084 4.73164 13.9783 4.7504 13.7646 4.68531C13.5509 4.62022 13.3692 4.47607 13.2559 4.28157C13.1366 4.45003 12.9721 4.58038 12.7819 4.6572C12.6165 4.72417 12.4373 4.74862 12.2603 4.72837C12.0833 4.70812 11.914 4.64379 11.7676 4.54115V4.53199C11.7325 4.64768 11.6749 4.75511 11.5982 4.84794C11.5214 4.94078 11.4271 5.01714 11.3208 5.07253C11.1511 5.16214 10.9574 5.19426 10.7683 5.16415C10.7657 5.31484 10.7228 5.462 10.6442 5.58999C10.5655 5.71797 10.454 5.82199 10.3215 5.89098C10.2384 5.93459 10.1486 5.96351 10.0559 5.97649C10.2038 6.33379 10.0559 6.75218 9.7087 6.93236C9.67567 6.95021 9.64136 6.96552 9.60606 6.97817C9.63287 7.01121 9.65615 7.04704 9.67549 7.08505C9.80228 7.33547 9.73889 7.63475 9.53964 7.81188C9.63693 7.86382 9.716 7.94488 9.76606 8.04398C9.88077 8.26691 9.82643 8.5326 9.6453 8.69446C9.6979 8.727 9.7407 8.77346 9.76908 8.82883C9.78417 8.85631 9.79323 8.8838 9.79926 8.91128C9.97651 8.86112 10.1634 8.85691 10.3427 8.89907C10.3507 8.85792 10.366 8.8186 10.3879 8.78302C10.4177 8.73607 10.4582 8.69711 10.506 8.66945C10.5538 8.6418 10.6076 8.62628 10.6627 8.62422C10.6334 8.53187 10.629 8.43328 10.6501 8.33866C10.6711 8.24404 10.7168 8.15685 10.7824 8.08612C10.848 8.01539 10.9312 7.96371 11.0232 7.93643C11.1152 7.90915 11.2127 7.90727 11.3057 7.93098C11.2907 7.79404 11.3227 7.65605 11.3962 7.54008C11.5713 7.25912 11.9396 7.17667 12.2174 7.35685C12.2362 7.26775 12.271 7.18288 12.32 7.10643C12.3722 7.02284 12.4403 6.95054 12.5203 6.89372C12.6002 6.83689 12.6906 6.79667 12.786 6.77537C12.8815 6.75408 12.9801 6.75213 13.0763 6.76964C13.1725 6.78714 13.2643 6.82377 13.3464 6.87739C13.3999 6.91263 13.4486 6.95471 13.4913 7.0026C13.5494 6.91012 13.6249 6.83012 13.7135 6.76717C13.8021 6.70423 13.9021 6.65957 14.0078 6.63574C14.1135 6.61192 14.2228 6.6094 14.3295 6.62833C14.4362 6.64726 14.5381 6.68727 14.6295 6.74607C14.7603 6.82987 14.865 6.94954 14.9313 7.09116C15.2181 6.89571 15.6045 6.87739 15.9125 7.07894C15.9743 7.11861 16.0311 7.16579 16.0815 7.21942V7.21942ZM10.4061 11.2506C10.3741 11.1908 10.3604 11.1228 10.3668 11.0551C10.278 11.0777 10.1867 11.089 10.0951 11.0887C10.0045 11.0887 9.917 11.0796 9.83549 11.0582C9.84954 11.1419 9.83233 11.2279 9.78719 11.2994C9.75719 11.3468 9.71621 11.386 9.6678 11.4137C9.6194 11.4414 9.56504 11.4567 9.50945 11.4582C9.5378 11.5501 9.54154 11.6479 9.52028 11.7417C9.49901 11.8355 9.45351 11.922 9.38843 11.9921C9.32334 12.0623 9.241 12.1138 9.14982 12.1412C9.05864 12.1687 8.96189 12.1712 8.86945 12.1484C8.8844 12.2854 8.85243 12.4234 8.77889 12.5393C8.69343 12.6739 8.55871 12.7688 8.40423 12.8032C8.24976 12.8375 8.08812 12.8085 7.95474 12.7226C7.93588 12.8117 7.9011 12.8965 7.85209 12.973C7.7999 13.0561 7.73199 13.1281 7.65225 13.1846C7.57251 13.2412 7.48251 13.2813 7.38743 13.3025C7.29234 13.3238 7.19403 13.3259 7.09815 13.3086C7.00227 13.2914 6.9107 13.2552 6.8287 13.202C6.77422 13.167 6.72449 13.1249 6.68077 13.0768V13.0799C6.56306 13.2661 6.37703 13.3975 6.1636 13.445C5.95017 13.4925 5.72682 13.4524 5.54266 13.3333C5.4122 13.2504 5.30755 13.1318 5.24077 12.9913C4.95398 13.1867 4.57059 13.2051 4.25964 13.0035C4.19785 12.9638 4.14108 12.9166 4.09058 12.863C4.0714 12.8938 4.04914 12.9224 4.02417 12.9485C4.14066 13.0095 4.23559 13.1055 4.29587 13.2234C4.3452 13.3218 4.36862 13.4313 4.36387 13.5416C4.35911 13.6518 4.32633 13.7589 4.2687 13.8525C4.45587 13.9075 4.62191 14.0357 4.71549 14.2251C4.79577 14.3821 4.81721 14.5633 4.77587 14.7351C4.95169 14.6918 5.13679 14.7099 5.30117 14.7864C5.46555 14.8629 5.59958 14.9933 5.68153 15.1565C5.72643 15.2472 5.75408 15.3456 5.76304 15.4466C5.96402 15.3469 6.19485 15.3276 6.40927 15.3927C6.62369 15.4579 6.80585 15.6026 6.91926 15.7978C7.03852 15.6294 7.203 15.499 7.39323 15.4222C7.7404 15.2817 8.11775 15.3367 8.40757 15.5383C8.44318 15.4244 8.50073 15.3189 8.5769 15.2277C8.65307 15.1364 8.74635 15.0614 8.85134 15.0069C9.02138 14.9183 9.21502 14.8873 9.40379 14.9183C9.40681 14.6221 9.56983 14.335 9.85058 14.1884C9.93463 14.1445 10.0255 14.1156 10.1193 14.1029C9.96832 13.7456 10.1193 13.3272 10.4634 13.147C10.4975 13.1301 10.5328 13.1158 10.5691 13.1043C10.541 13.0704 10.5167 13.0336 10.4966 12.9944C10.3698 12.7439 10.4362 12.4477 10.6325 12.2706C10.5352 12.2186 10.4561 12.1376 10.4061 12.0385C10.2944 11.8125 10.3487 11.5468 10.5268 11.3849C10.4753 11.352 10.4336 11.3056 10.4061 11.2506Z" fill="#120030"/>
<path d="M9.0687 10.368C9.00945 10.4097 8.93857 10.4311 8.86644 10.4291C8.81113 10.4278 8.75695 10.413 8.70856 10.3859C8.66018 10.3588 8.61904 10.3201 8.5887 10.2733C8.52554 10.3453 8.44462 10.399 8.35421 10.429C8.2638 10.459 8.16714 10.4642 8.07411 10.444C7.98108 10.4238 7.89502 10.379 7.82472 10.3141C7.75442 10.2493 7.7024 10.1667 7.67398 10.0748C7.56489 10.1586 7.43052 10.2018 7.29361 10.197C6.96455 10.1909 6.70493 9.91297 6.71398 9.58009C6.62857 9.60961 6.53853 9.62307 6.44832 9.61979C6.33461 9.61708 6.22305 9.58788 6.12231 9.53445C6.02158 9.48103 5.93438 9.40482 5.86749 9.31175C5.80061 9.21868 5.75585 9.11127 5.73668 8.99785C5.71752 8.88443 5.72447 8.76807 5.757 8.65781H5.75398C5.30115 8.64865 4.93889 8.26691 4.95097 7.80577C4.95475 7.65018 5.00184 7.49882 5.08681 7.36907C4.9287 7.29421 4.79563 7.17429 4.70393 7.02402C4.61223 6.87375 4.56589 6.69967 4.57059 6.52314C4.57258 6.42305 4.59095 6.32398 4.62493 6.22996C4.5974 6.22705 4.57015 6.22195 4.54342 6.21469C4.54945 6.34731 4.51464 6.47856 4.4438 6.59032C4.38514 6.68334 4.30375 6.75947 4.2075 6.81137C4.11125 6.86326 4.0034 6.88915 3.89436 6.88655C3.94266 7.07895 3.91549 7.28661 3.8038 7.46679C3.71003 7.6155 3.56641 7.72501 3.39927 7.77524C3.64983 8.04092 3.70115 8.4532 3.49587 8.77691C3.44171 8.86261 3.37207 8.9372 3.29059 8.9968C3.47662 9.12192 3.60917 9.31342 3.66177 9.53306C3.71437 9.7527 3.68316 9.98433 3.57436 10.1817C3.77803 10.2016 3.97183 10.28 4.13285 10.4077C4.27349 10.5182 4.38487 10.6622 4.45704 10.8269C4.52921 10.9915 4.55993 11.1717 4.54644 11.3514C4.77285 11.2994 5.01436 11.3361 5.22568 11.4735C5.38597 11.5764 5.50968 11.7283 5.57889 11.9072C5.70918 11.833 5.85696 11.7961 6.00639 11.8004C6.15582 11.8047 6.30128 11.8501 6.42719 11.9316C6.50683 11.9822 6.57729 12.0462 6.63549 12.1209C6.86493 11.8094 7.29965 11.7239 7.62568 11.9377C7.65761 11.9587 7.68789 11.9822 7.71625 12.0079C7.7312 11.9673 7.75043 11.9284 7.77361 11.8919C7.92455 11.6537 8.20832 11.559 8.46191 11.6415C8.45714 11.5317 8.48558 11.423 8.54342 11.33C8.67927 11.1162 8.93587 11.0337 9.15927 11.107C9.16048 11.0423 9.17986 10.9792 9.21513 10.9251C9.2504 10.8711 9.30012 10.8282 9.35851 10.8017C9.22995 10.6842 9.13065 10.5377 9.0687 10.3741V10.368Z" fill="#120030"/>
</g>
<defs>
<clipPath id="clip0_256_604">
<rect width="20" height="20" fill="white"/>
</clipPath>
</defs>
</svg>
